<svg width="203" height="70" viewBox="0 0 203 70" fill="none" xmlns="http://www.w3.org/2000/svg">
<path d="M179.355 64.8859C165.976 64.8859 155.71 54.3784 155.71 41.4332C155.71 28.488 165.976 17.9805 179.355 17.9805C192.734 17.9805 203 28.488 203 41.4332C203 54.3784 192.734 64.8859 179.355 64.8859ZM179.355 52.0247C183.815 52.0247 188.022 48.4942 188.022 41.4332C188.022 34.3721 183.815 30.9257 179.355 30.9257C174.895 30.9257 170.688 34.3721 170.688 41.4332C170.688 48.4942 174.895 52.0247 179.355 52.0247Z" fill="#222222"/>
<path d="M129.493 41.2075L134.884 61.3261L121.012 65.0431L109.317 21.3987L122.054 17.986L124.119 25.6927C126.075 19.6907 132.188 14.9227 139.165 13.0533L143.034 27.4933C132.957 29.1499 126.907 31.5538 129.493 41.2075Z" fill="#222222"/>
<path d="M91.0222 64.0453V59.6742C87.8196 63.2887 83.8585 64.8859 78.0433 64.8859C68.6041 64.8859 62.2832 59.2539 62.2832 50.6798C62.2832 41.8535 69.4469 37.0621 82.4258 37.0621C84.8698 37.0621 87.1454 37.2302 89.0838 37.5664V35.3809C89.0838 31.43 86.8082 29.2445 82.7629 29.2445C78.8018 29.2445 76.442 31.43 75.9363 35.3809H62.9574C63.8002 24.8734 71.6381 17.9805 82.8472 17.9805C95.3204 17.9805 102.653 24.7053 102.653 36.1374V64.0453H91.0222ZM75.852 50.2595C75.852 53.2015 77.8747 54.9668 81.4144 54.9668C86.2183 54.9668 89.0838 52.6972 89.0838 48.9986V46.1405C86.8925 45.7202 85.207 45.5521 83.3528 45.5521C78.4647 45.5521 75.852 47.1492 75.852 50.2595Z" fill="#222222"/>
<path d="M18.9305 63.6286L6.98562 55.6553L25.1236 28.4826L18.1383 23.8198L25.0857 13.4118L32.071 18.0745L32.9569 16.7473C38.1325 8.99359 45.2146 7.46033 53.5969 13.0556C56.3212 14.874 58.2999 16.9017 59.5334 18.8358L53.2387 28.2659C52.5405 27.194 51.1903 25.8888 49.9329 25.0495C47.9072 23.6973 45.8809 23.2536 44.7152 24.9999L44.0158 26.0477L53.2364 32.2025L46.289 42.6106L37.0684 36.4558L18.9305 63.6286Z" fill="#222222"/>
</svg>
