<svg width="87" height="87" viewBox="0 0 87 87" fill="none" xmlns="http://www.w3.org/2000/svg">
<ellipse cx="72.4999" cy="14.4999" rx="14.4999" ry="14.4999" transform="rotate(90 72.4999 14.4999)" fill="#F4F4F1"/>
<path d="M57 43.502C56.9999 50.9577 50.9557 57.002 43.5 57.002C36.0443 57.0019 30.0001 50.9576 30 43.502C30 36.0462 36.0443 30.002 43.5 30.002C50.9558 30.002 57 36.0462 57 43.502Z" stroke="#F4F4F1" stroke-width="2"/>
<mask id="path-3-inside-1_63_2644" fill="white">
<path d="M43.5 0C51.5081 3.50043e-07 58 6.49195 58 14.5C57.9999 22.508 51.508 29 43.5 29C38.8297 28.9999 34.6751 26.7916 32.0232 23.3624C31.2882 22.4119 30.2015 21.752 29 21.752C27.7985 21.752 26.7119 22.4119 25.9767 23.3623C25.2196 24.341 24.34 25.2201 23.361 25.9769C22.4101 26.7119 21.75 27.7987 21.75 29.0005C21.75 30.2023 22.4102 31.2892 23.361 32.0242C26.7908 34.6759 28.9999 38.8303 29 43.501C29 51.509 22.508 58.0009 14.5 58.001C6.49195 58.001 -3.50043e-07 51.509 0 43.501C0.000147424 38.8297 2.20926 34.6744 5.63972 32.0226C6.5901 31.288 7.25 30.2017 7.25 29.0005C7.25 27.7993 6.59011 26.713 5.63975 25.9784C2.20924 23.3266 4.31919e-05 19.1714 0 14.5C3.50043e-07 6.49195 6.49195 -3.50043e-07 14.5 0C19.1732 4.86285e-05 23.3303 2.21071 25.9821 5.64345C26.7155 6.59283 27.8003 7.25195 29 7.25195C30.1997 7.25195 31.2845 6.59282 32.0179 5.64344C34.6697 2.21071 38.8268 5.60436e-05 43.5 0Z"/>
</mask>
<path d="M43.5 0V-2H43.5L43.5 0ZM58 14.5L60 14.5V14.5H58ZM43.5 29L43.5 31H43.5V29ZM29 43.501H31V43.5009L29 43.501ZM14.5 58.001V60.001H14.5L14.5 58.001ZM0 43.501L-2 43.5009V43.501H0ZM0 14.5H-2V14.5L0 14.5ZM14.5 0L14.5 -2H14.5V0ZM5.63975 25.9784L4.41659 27.5607L5.63975 25.9784ZM23.361 32.0242L24.5843 30.442L23.361 32.0242ZM23.361 25.9769L22.1379 24.3945L23.361 25.9769ZM32.0179 5.64344L30.4352 4.42079L32.0179 5.64344ZM43.5 0V2C50.4035 2 56 7.59652 56 14.5H58H60C60 5.38738 52.6126 -2 43.5 -2V0ZM58 14.5L56 14.5C55.9999 21.4034 50.4034 27 43.5 27V29V31C52.6126 31 59.9999 23.6125 60 14.5L58 14.5ZM43.5 29L43.5 27C39.4751 27 35.8948 25.0995 33.6053 22.1389L32.0232 23.3624L30.4411 24.5859C33.4554 28.4837 38.1843 30.9999 43.5 31L43.5 29ZM25.9767 23.3623L24.3948 22.1385C23.7417 22.9829 22.9827 23.7415 22.1379 24.3945L23.361 25.9769L24.5841 27.5593C25.6974 26.6987 26.6976 25.6991 27.5587 24.586L25.9767 23.3623ZM23.361 32.0242L22.1377 33.6065C25.0989 35.8959 26.9999 39.4759 27 43.501L29 43.501L31 43.5009C30.9998 38.1846 28.4827 33.456 24.5843 30.442L23.361 32.0242ZM29 43.501H27C27 50.4044 21.4034 56.0009 14.5 56.001L14.5 58.001L14.5 60.001C23.6125 60.0009 31 52.6136 31 43.501H29ZM14.5 58.001V56.001C7.59652 56.001 2 50.4045 2 43.501H0H-2C-2 52.6136 5.38738 60.001 14.5 60.001V58.001ZM0 43.501L2 43.501C2.00013 39.4752 3.90126 35.8943 6.86289 33.605L5.63972 32.0226L4.41656 30.4403C0.517262 33.4544 -1.99983 38.1842 -2 43.5009L0 43.501ZM5.63975 25.9784L6.86291 24.396C3.90121 22.1066 2.00004 18.5258 2 14.5L0 14.5L-2 14.5C-1.99995 19.8169 0.517273 24.5466 4.41659 27.5607L5.63975 25.9784ZM0 14.5H2C2 7.59652 7.59652 2 14.5 2V0V-2C5.38738 -2 -2 5.38738 -2 14.5H0ZM14.5 0L14.5 2C18.5276 2.00004 22.11 3.90256 24.3993 6.8661L25.9821 5.64345L27.5648 4.42079C24.5506 0.518858 19.8189 -1.99994 14.5 -2L14.5 0ZM32.0179 5.64344L33.6007 6.8661C35.89 3.90256 39.4724 2.00005 43.5 2L43.5 0L43.5 -2C38.1811 -1.99994 33.4494 0.518857 30.4352 4.42079L32.0179 5.64344ZM7.25 29.0005H9.25C9.25 27.0433 8.18382 25.4171 6.86291 24.396L5.63975 25.9784L4.41659 27.5607C4.9964 28.0089 5.25 28.5553 5.25 29.0005H7.25ZM21.75 29.0005H19.75C19.75 30.9583 20.8165 32.585 22.1377 33.6065L23.361 32.0242L24.5843 30.442C24.004 29.9933 23.75 29.4463 23.75 29.0005H21.75ZM5.63972 32.0226L6.86289 33.605C8.1838 32.5839 9.25 30.9577 9.25 29.0005H7.25H5.25C5.25 29.4457 4.9964 29.992 4.41656 30.4403L5.63972 32.0226ZM23.361 25.9769L22.1379 24.3945C20.8163 25.416 19.75 27.0427 19.75 29.0005H21.75H23.75C23.75 28.5546 24.0039 28.0077 24.5841 27.5593L23.361 25.9769ZM29 7.25195V9.25195C30.9558 9.25195 32.5808 8.18642 33.6007 6.8661L32.0179 5.64344L30.4352 4.42079C29.9883 4.99923 29.4435 5.25195 29 5.25195V7.25195ZM29 21.752V19.752C27.0426 19.752 25.4163 20.818 24.3948 22.1385L25.9767 23.3623L27.5587 24.586C28.0075 24.0057 28.5543 23.752 29 23.752V21.752ZM25.9821 5.64345L24.3993 6.8661C25.4192 8.18642 27.0442 9.25195 29 9.25195V7.25195V5.25195C28.5565 5.25195 28.0117 4.99923 27.5648 4.42079L25.9821 5.64345ZM32.0232 23.3624L33.6053 22.1389C32.5839 20.8181 30.9574 19.752 29 19.752V21.752V23.752C29.4456 23.752 29.9924 24.0058 30.4411 24.5859L32.0232 23.3624Z" fill="#F4F4F1" mask="url(#path-3-inside-1_63_2644)"/>
<mask id="path-5-inside-2_63_2644" fill="white">
<path d="M72.499 29.002C80.5069 29.002 86.9988 35.4931 86.999 43.501C86.999 48.1724 84.7897 52.3276 81.3592 54.9793C80.4089 55.714 79.749 56.8002 79.749 58.0014C79.749 59.2026 80.409 60.289 81.3594 61.0236C84.79 63.6755 86.999 67.8314 86.999 72.5029C86.999 80.511 80.5071 87.0029 72.499 87.0029C67.8259 87.0029 63.6697 84.7917 61.0181 81.3589C60.2846 80.4093 59.1995 79.75 57.9995 79.75C56.7996 79.75 55.7144 80.4093 54.9809 81.359C52.3294 84.7917 48.1731 87.0028 43.5 87.0029C38.8265 87.0029 34.6695 84.7917 32.0178 81.3585C31.2845 80.4091 30.1997 79.75 29 79.75C27.8004 79.75 26.7155 80.4092 25.9822 81.3586C23.3305 84.7917 19.1735 87.0029 14.5 87.0029C6.49195 87.0029 -3.50043e-07 80.511 0 72.5029C5.17207e-05 64.4949 6.49198 58.0029 14.5 58.0029C19.17 58.003 23.3247 60.2108 25.9767 63.6396C26.7118 64.59 27.7985 65.25 29 65.25C30.2016 65.25 31.2882 64.5901 32.0233 63.6396C34.6753 60.2109 38.83 58.0029 43.5 58.0029C48.1696 58.0031 52.3235 60.2108 54.9754 63.6392C55.7107 64.5899 56.7977 65.25 57.9995 65.25C59.2014 65.25 60.2882 64.59 61.0236 63.6393C61.7804 62.6609 62.6595 61.7819 63.6381 61.0252C64.5888 60.2901 65.249 59.2033 65.249 58.0014C65.249 56.7996 64.5889 55.7128 63.6381 54.9777C60.2083 52.326 57.999 48.1717 57.999 43.501C57.9993 35.4932 64.4912 29.0021 72.499 29.002Z"/>
</mask>
<path d="M72.499 29.002V27.002H72.499L72.499 29.002ZM86.999 43.501H88.999V43.5009L86.999 43.501ZM86.999 72.5029H88.999V72.5029L86.999 72.5029ZM72.499 87.0029L72.499 89.0029H72.499V87.0029ZM43.5 87.0029V89.0029H43.5001L43.5 87.0029ZM14.5 87.0029V89.0029H14.5L14.5 87.0029ZM0 72.5029L-2 72.5029V72.5029H0ZM14.5 58.0029L14.5 56.0029H14.5V58.0029ZM43.5 58.0029L43.5001 56.0029H43.5V58.0029ZM57.999 43.501L55.999 43.5009V43.501H57.999ZM63.6381 54.9777L62.4148 56.56L63.6381 54.9777ZM63.6381 61.0252L64.8614 62.6074L63.6381 61.0252ZM32.0233 63.6396L33.6053 64.8633L32.0233 63.6396ZM25.9822 81.3586L24.3993 80.1361L25.9822 81.3586ZM61.0181 81.3589L62.601 80.1364L61.0181 81.3589ZM25.9767 63.6396L24.3947 64.8632L25.9767 63.6396ZM81.3594 61.0236L82.5825 59.4412L81.3594 61.0236ZM61.0236 63.6393L59.4416 62.4157L61.0236 63.6393ZM54.9809 81.359L53.3981 80.1364L54.9809 81.359ZM81.3592 54.9793L82.5824 56.5617L81.3592 54.9793ZM72.499 29.002V31.002C79.4025 31.002 84.9988 36.5978 84.999 43.501L86.999 43.501L88.999 43.5009C88.9987 34.3884 81.6114 27.002 72.499 27.002V29.002ZM86.999 43.501H84.999C84.999 47.5268 83.0978 51.1076 80.1361 53.397L81.3592 54.9793L82.5824 56.5617C86.4817 53.5476 88.999 48.8179 88.999 43.501H86.999ZM81.3594 61.0236L80.1362 62.606C83.0979 64.8954 84.999 68.4767 84.999 72.5029L86.999 72.5029L88.999 72.5029C88.999 67.186 86.4821 62.4556 82.5825 59.4412L81.3594 61.0236ZM86.999 72.5029H84.999C84.999 79.4064 79.4025 85.0029 72.499 85.0029V87.0029V89.0029C81.6116 89.0029 88.999 81.6156 88.999 72.5029H86.999ZM72.499 87.0029L72.4991 85.0029C68.4718 85.0029 64.8902 83.1001 62.601 80.1364L61.0181 81.3589L59.4353 82.5815C62.4491 86.4834 67.18 89.0028 72.499 89.0029L72.499 87.0029ZM54.9809 81.359L53.3981 80.1364C51.1089 83.1001 47.5272 85.0028 43.4999 85.0029L43.5 87.0029L43.5001 89.0029C48.819 89.0028 53.5499 86.4834 56.5637 82.5815L54.9809 81.359ZM43.5 87.0029V85.0029C39.4724 85.0029 35.89 83.1 33.6007 80.136L32.0178 81.3585L30.435 82.5811C33.449 86.4834 38.1807 89.0029 43.5 89.0029V87.0029ZM25.9822 81.3586L24.3993 80.1361C22.1101 83.1 18.5277 85.0029 14.5 85.0029L14.5 87.0029L14.5 89.0029C19.8193 89.0029 24.551 86.4835 27.565 82.5811L25.9822 81.3586ZM14.5 87.0029V85.0029C7.59652 85.0029 2 79.4064 2 72.5029H0H-2C-2 81.6156 5.38738 89.0029 14.5 89.0029V87.0029ZM0 72.5029L2 72.5029C2.00004 65.5995 7.59656 60.0029 14.5 60.0029V58.0029V56.0029C5.3874 56.0029 -1.99994 63.3904 -2 72.5029L0 72.5029ZM14.5 58.0029L14.5 60.0029C18.5248 60.003 22.1051 61.903 24.3947 64.8632L25.9767 63.6396L27.5587 62.416C24.5443 58.5186 19.8153 56.003 14.5 56.0029L14.5 58.0029ZM32.0233 63.6396L33.6053 64.8633C35.8949 61.9031 39.4753 60.0029 43.5 60.0029V58.0029V56.0029C38.1847 56.0029 33.4558 58.5187 30.4413 62.416L32.0233 63.6396ZM43.5 58.0029L43.4999 60.0029C47.5243 60.0031 51.1039 61.903 53.3934 64.8629L54.9754 63.6392L56.5574 62.4156C53.5431 58.5187 48.815 56.0031 43.5001 56.0029L43.5 58.0029ZM61.0236 63.6393L62.6056 64.8629C63.2585 64.0187 64.0171 63.2602 64.8614 62.6074L63.6381 61.0252L62.4147 59.443C61.3018 60.3035 60.3022 61.303 59.4416 62.4157L61.0236 63.6393ZM63.6381 54.9777L64.8614 53.3955C61.9001 51.106 59.999 47.526 59.999 43.501H57.999H55.999C55.999 48.8174 58.5164 53.546 62.4148 56.56L63.6381 54.9777ZM57.999 43.501L59.999 43.501C59.9992 36.5979 65.5957 31.0021 72.4991 31.002L72.499 29.002L72.499 27.002C63.3868 27.0021 55.9993 34.3885 55.999 43.5009L57.999 43.501ZM65.249 58.0014H67.249C67.249 56.0437 66.1826 54.4169 64.8614 53.3955L63.6381 54.9777L62.4148 56.56C62.9951 57.0086 63.249 57.5556 63.249 58.0014H65.249ZM63.6381 61.0252L64.8614 62.6074C66.1826 61.5859 67.249 59.9592 67.249 58.0014H65.249H63.249C63.249 58.4473 62.9951 58.9943 62.4147 59.443L63.6381 61.0252ZM29 65.25V67.25C30.9574 67.25 32.5838 66.184 33.6053 64.8633L32.0233 63.6396L30.4413 62.416C29.9926 62.9962 29.4457 63.25 29 63.25V65.25ZM29 79.75V77.75C27.0442 77.75 25.4192 78.8156 24.3993 80.1361L25.9822 81.3586L27.565 82.5811C28.0118 82.0027 28.5565 81.75 29 81.75V79.75ZM32.0178 81.3585L33.6007 80.136C32.5808 78.8156 30.9558 77.75 29 77.75V79.75V81.75C29.4435 81.75 29.9883 82.0027 30.435 82.5811L32.0178 81.3585ZM54.9754 63.6392L53.3934 64.8629C54.4151 66.1838 56.0418 67.25 57.9995 67.25V65.25V63.25C57.5535 63.25 57.0063 62.996 56.5574 62.4156L54.9754 63.6392ZM61.0181 81.3589L62.601 80.1364C61.5809 78.8157 59.9556 77.75 57.9995 77.75V79.75V81.75C58.4433 81.75 58.9884 82.0029 59.4353 82.5815L61.0181 81.3589ZM25.9767 63.6396L24.3947 64.8632C25.4162 66.1839 27.0426 67.25 29 67.25V65.25V63.25C28.5543 63.25 28.0074 62.9962 27.5587 62.416L25.9767 63.6396ZM79.749 58.0014H77.749C77.749 59.9587 78.8153 61.5849 80.1362 62.606L81.3594 61.0236L82.5825 59.4412C82.0026 58.993 81.749 58.4466 81.749 58.0014H79.749ZM57.9995 65.25V67.25C59.9572 67.25 61.5838 66.1839 62.6056 64.8629L61.0236 63.6393L59.4416 62.4157C58.9927 62.996 58.4456 63.25 57.9995 63.25V65.25ZM57.9995 79.75V77.75C56.0434 77.75 54.4182 78.8157 53.3981 80.1364L54.9809 81.359L56.5637 82.5815C57.0107 82.0029 57.5557 81.75 57.9995 81.75V79.75ZM81.3592 54.9793L80.1361 53.397C78.8152 54.418 77.749 56.0442 77.749 58.0014H79.749H81.749C81.749 57.5562 82.0026 57.0099 82.5824 56.5617L81.3592 54.9793Z" fill="#F4F4F1" mask="url(#path-5-inside-2_63_2644)"/>
</svg>
