<svg width="87" height="87" viewBox="0 0 87 87" fill="none" xmlns="http://www.w3.org/2000/svg">
<ellipse cx="72.5001" cy="14.4999" rx="14.4999" ry="14.4999" transform="rotate(90 72.5001 14.4999)" fill="#222222"/>
<path d="M57 43.5C56.9999 50.9557 50.9557 57 43.5 57C36.0443 56.9999 30.0001 50.9557 30 43.5C30 36.0443 36.0443 30.0001 43.5 30C50.9558 30 57 36.0442 57 43.5Z" stroke="#222222" stroke-width="2"/>
<mask id="path-3-inside-1_88_582" fill="white">
<path d="M43.5 0C51.5081 3.50043e-07 58 6.49195 58 14.5C57.9999 22.508 51.508 29 43.5 29C38.8297 28.9999 34.6751 26.7916 32.0232 23.3624C31.2882 22.4119 30.2015 21.752 29 21.752V21.752C27.7985 21.752 26.7119 22.4119 25.9767 23.3623C25.2196 24.341 24.34 25.2201 23.361 25.9769C22.4101 26.7119 21.75 27.7987 21.75 29.0005V29.0005C21.75 30.2023 22.4102 31.2892 23.361 32.0242C26.7908 34.6759 28.9999 38.8303 29 43.501C29 51.509 22.508 58.0009 14.5 58.001C6.49195 58.001 -3.50043e-07 51.509 0 43.501C0.000147424 38.8297 2.20926 34.6744 5.63972 32.0226C6.5901 31.288 7.25 30.2017 7.25 29.0005V29.0005C7.25 27.7993 6.59011 26.713 5.63975 25.9784C2.20924 23.3266 4.31919e-05 19.1714 0 14.5C3.50043e-07 6.49195 6.49195 -3.50043e-07 14.5 0C19.1732 4.86285e-05 23.3303 2.21071 25.9821 5.64345C26.7155 6.59283 27.8003 7.25195 29 7.25195V7.25195C30.1997 7.25195 31.2845 6.59282 32.0179 5.64344C34.6697 2.21071 38.8268 5.60436e-05 43.5 0Z"/>
</mask>
<path d="M43.5 0L43.5 -2L43.5 -2L43.5 0ZM58 14.5L60 14.5L60 14.5L58 14.5ZM43.5 29L43.5 31L43.5 31L43.5 29ZM29 43.501L31 43.501L31 43.5009L29 43.501ZM14.5 58.001L14.5 60.001L14.5 60.001L14.5 58.001ZM0 43.501L-2 43.5009L-2 43.501L0 43.501ZM0 14.5L-2 14.5L-2 14.5L0 14.5ZM14.5 0L14.5 -2L14.5 -2L14.5 0ZM5.63975 25.9784L4.41659 27.5607L5.63975 25.9784ZM23.361 32.0242L24.5843 30.442L23.361 32.0242ZM23.361 25.9769L22.1379 24.3945L23.361 25.9769ZM32.0179 5.64344L30.4352 4.42079L32.0179 5.64344ZM43.5 0L43.5 2C50.4035 2 56 7.59652 56 14.5L58 14.5L60 14.5C60 5.38738 52.6126 -2 43.5 -2L43.5 0ZM58 14.5L56 14.5C55.9999 21.4034 50.4034 27 43.5 27L43.5 29L43.5 31C52.6126 31 59.9999 23.6125 60 14.5L58 14.5ZM43.5 29L43.5 27C39.4751 27 35.8948 25.0995 33.6053 22.1389L32.0232 23.3624L30.4411 24.5859C33.4554 28.4837 38.1843 30.9999 43.5 31L43.5 29ZM25.9767 23.3623L24.3948 22.1386C23.7417 22.9829 22.9827 23.7415 22.1379 24.3945L23.361 25.9769L24.5841 27.5593C25.6974 26.6987 26.6976 25.6991 27.5587 24.586L25.9767 23.3623ZM23.361 32.0242L22.1377 33.6065C25.0989 35.8959 26.9999 39.4759 27 43.501L29 43.501L31 43.5009C30.9998 38.1846 28.4827 33.456 24.5843 30.442L23.361 32.0242ZM29 43.501L27 43.501C27 50.4044 21.4034 56.0009 14.5 56.001L14.5 58.001L14.5 60.001C23.6125 60.0009 31 52.6136 31 43.501L29 43.501ZM14.5 58.001L14.5 56.001C7.59652 56.001 2 50.4045 2 43.501L0 43.501L-2 43.501C-2 52.6136 5.38738 60.001 14.5 60.001L14.5 58.001ZM0 43.501L2 43.501C2.00013 39.4752 3.90126 35.8943 6.86289 33.605L5.63972 32.0226L4.41656 30.4403C0.517262 33.4544 -1.99983 38.1842 -2 43.5009L0 43.501ZM5.63975 25.9784L6.86291 24.396C3.90121 22.1066 2.00004 18.5258 2 14.5L0 14.5L-2 14.5C-1.99995 19.8169 0.517273 24.5466 4.41659 27.5607L5.63975 25.9784ZM0 14.5L2 14.5C2 7.59652 7.59652 2 14.5 2L14.5 0L14.5 -2C5.38738 -2 -2 5.38738 -2 14.5L0 14.5ZM14.5 0L14.5 2C18.5276 2.00004 22.11 3.90256 24.3993 6.8661L25.9821 5.64345L27.5648 4.42079C24.5506 0.518858 19.8189 -1.99994 14.5 -2L14.5 0ZM32.0179 5.64344L33.6007 6.8661C35.89 3.90256 39.4724 2.00005 43.5 2L43.5 0L43.5 -2C38.1811 -1.99994 33.4494 0.518857 30.4352 4.42079L32.0179 5.64344ZM7.25 29.0005H9.25C9.25 27.0433 8.18382 25.4171 6.86291 24.396L5.63975 25.9784L4.41659 27.5607C4.9964 28.0089 5.25 28.5553 5.25 29.0005H7.25ZM21.75 29.0005H19.75C19.75 30.9583 20.8165 32.585 22.1377 33.6065L23.361 32.0242L24.5843 30.442C24.004 29.9933 23.75 29.4463 23.75 29.0005H21.75ZM5.63972 32.0226L6.86289 33.605C8.1838 32.5839 9.25 30.9577 9.25 29.0005H7.25H5.25C5.25 29.4457 4.9964 29.992 4.41656 30.4403L5.63972 32.0226ZM23.361 25.9769L22.1379 24.3945C20.8163 25.416 19.75 27.0427 19.75 29.0005H21.75H23.75C23.75 28.5546 24.0039 28.0077 24.5841 27.5593L23.361 25.9769ZM29 7.25195V9.25195C30.9558 9.25195 32.5808 8.18642 33.6007 6.8661L32.0179 5.64344L30.4352 4.42079C29.9883 4.99923 29.4435 5.25195 29 5.25195V7.25195ZM29 21.752V19.752C27.0426 19.752 25.4163 20.818 24.3948 22.1386L25.9767 23.3623L27.5587 24.586C28.0075 24.0057 28.5543 23.752 29 23.752V21.752ZM25.9821 5.64345L24.3993 6.8661C25.4192 8.18642 27.0442 9.25195 29 9.25195V7.25195V5.25195C28.5565 5.25195 28.0117 4.99923 27.5648 4.42079L25.9821 5.64345ZM32.0232 23.3624L33.6053 22.1389C32.5839 20.8181 30.9574 19.752 29 19.752V21.752V23.752C29.4456 23.752 29.9924 24.0058 30.4411 24.5859L32.0232 23.3624Z" fill="#222222" mask="url(#path-3-inside-1_88_582)"/>
<mask id="path-5-inside-2_88_582" fill="white">
<path d="M72.499 29C80.5069 29 86.9988 35.4912 86.999 43.499C86.999 48.1704 84.7897 52.3256 81.3592 54.9774C80.4089 55.712 79.749 56.7983 79.749 57.9995V57.9995C79.749 59.2007 80.409 60.287 81.3594 61.0217C84.79 63.6735 86.999 67.8294 86.999 72.501C86.999 80.509 80.5071 87.001 72.499 87.001C67.8259 87.0009 63.6697 84.7898 61.0181 81.357C60.2846 80.4073 59.1995 79.748 57.9995 79.748V79.748C56.7996 79.748 55.7144 80.4074 54.9809 81.357C52.3294 84.7898 48.1731 87.0008 43.5 87.001C38.8265 87.001 34.6695 84.7897 32.0178 81.3566C31.2845 80.4072 30.1997 79.748 29 79.748V79.748C27.8004 79.748 26.7155 80.4072 25.9822 81.3566C23.3305 84.7898 19.1735 87.0009 14.5 87.001C6.49195 87.001 -3.50043e-07 80.509 0 72.501C5.17207e-05 64.493 6.49198 58.001 14.5 58.001C19.17 58.001 23.3247 60.2088 25.9767 63.6376C26.7118 64.5881 27.7985 65.248 29 65.248V65.248C30.2016 65.248 31.2882 64.5881 32.0233 63.6377C34.6753 60.2089 38.83 58.001 43.5 58.001C48.1696 58.0011 52.3235 60.2089 54.9754 63.6373C55.7107 64.5879 56.7977 65.248 57.9995 65.248V65.248C59.2014 65.248 60.2882 64.588 61.0236 63.6373C61.7804 62.6589 62.6595 61.7799 63.6381 61.0233C64.5888 60.2881 65.249 59.2013 65.249 57.9995V57.9995C65.249 56.7977 64.5889 55.7108 63.6381 54.9758C60.2083 52.324 57.999 48.1697 57.999 43.499C57.9993 35.4913 64.4912 29.0001 72.499 29Z"/>
</mask>
<path d="M72.499 29L72.499 27L72.499 27L72.499 29ZM86.999 43.499L88.999 43.499L88.999 43.499L86.999 43.499ZM86.999 72.501L88.999 72.501L88.999 72.501L86.999 72.501ZM72.499 87.001L72.499 89.001L72.499 89.001L72.499 87.001ZM43.5 87.001L43.5 89.001L43.5001 89.001L43.5 87.001ZM14.5 87.001L14.5 89.001L14.5 89.001L14.5 87.001ZM0 72.501L-2 72.501L-2 72.501L0 72.501ZM14.5 58.001L14.5 56.001L14.5 56.001L14.5 58.001ZM43.5 58.001L43.5001 56.001L43.5 56.001L43.5 58.001ZM57.999 43.499L55.999 43.499L55.999 43.499L57.999 43.499ZM63.6381 54.9758L62.4148 56.558L63.6381 54.9758ZM63.6381 61.0233L64.8614 62.6055L63.6381 61.0233ZM32.0233 63.6377L33.6053 64.8613L32.0233 63.6377ZM25.9822 81.3566L24.3993 80.1341L25.9822 81.3566ZM61.0181 81.357L62.601 80.1344L61.0181 81.357ZM25.9767 63.6376L24.3947 64.8612L24.3947 64.8612L25.9767 63.6376ZM81.3594 61.0217L82.5825 59.4393L81.3594 61.0217ZM61.0236 63.6373L59.4416 62.4137L61.0236 63.6373ZM54.9809 81.357L53.3981 80.1344L54.9809 81.357ZM81.3592 54.9774L82.5824 56.5598L81.3592 54.9774ZM72.499 29L72.499 31C79.4025 31 84.9988 36.5959 84.999 43.4991L86.999 43.499L88.999 43.499C88.9987 34.3865 81.6114 27 72.499 27L72.499 29ZM86.999 43.499L84.999 43.499C84.999 47.5248 83.0978 51.1056 80.1361 53.395L81.3592 54.9774L82.5824 56.5598C86.4817 53.5456 88.999 48.816 88.999 43.499L86.999 43.499ZM81.3594 61.0217L80.1362 62.604C83.0979 64.8934 84.999 68.4748 84.999 72.501L86.999 72.501L88.999 72.501C88.999 67.184 86.4821 62.4537 82.5825 59.4393L81.3594 61.0217ZM86.999 72.501L84.999 72.501C84.999 79.4045 79.4025 85.001 72.499 85.001L72.499 87.001L72.499 89.001C81.6116 89.001 88.999 81.6136 88.999 72.501L86.999 72.501ZM72.499 87.001L72.4991 85.001C68.4718 85.0009 64.8902 83.0982 62.601 80.1344L61.0181 81.357L59.4353 82.5796C62.4491 86.4814 67.18 89.0009 72.499 89.001L72.499 87.001ZM54.9809 81.357L53.3981 80.1344C51.1089 83.0981 47.5272 85.0009 43.4999 85.001L43.5 87.001L43.5001 89.001C48.819 89.0008 53.5499 86.4814 56.5637 82.5796L54.9809 81.357ZM43.5 87.001L43.5 85.001C39.4724 85.001 35.89 83.098 33.6007 80.134L32.0178 81.3566L30.435 82.5791C33.449 86.4814 38.1807 89.001 43.5 89.001L43.5 87.001ZM25.9822 81.3566L24.3993 80.1341C22.1101 83.0981 18.5277 85.0009 14.5 85.001L14.5 87.001L14.5 89.001C19.8193 89.0009 24.551 86.4815 27.565 82.5792L25.9822 81.3566ZM14.5 87.001L14.5 85.001C7.59652 85.001 2 79.4045 2 72.501L0 72.501L-2 72.501C-2 81.6136 5.38738 89.001 14.5 89.001L14.5 87.001ZM0 72.501L2 72.501C2.00004 65.5975 7.59656 60.001 14.5 60.001L14.5 58.001L14.5 56.001C5.3874 56.001 -1.99994 63.3884 -2 72.501L0 72.501ZM14.5 58.001L14.5 60.001C18.5248 60.001 22.1051 61.9011 24.3947 64.8612L25.9767 63.6376L27.5587 62.414C24.5443 58.5166 19.8153 56.001 14.5 56.001L14.5 58.001ZM32.0233 63.6377L33.6053 64.8613C35.8949 61.9011 39.4753 60.001 43.5 60.001L43.5 58.001L43.5 56.001C38.1847 56.001 33.4558 58.5167 30.4413 62.4141L32.0233 63.6377ZM43.5 58.001L43.4999 60.001C47.5243 60.0011 51.1039 61.901 53.3934 64.8609L54.9754 63.6373L56.5574 62.4136C53.5431 58.5167 48.815 56.0011 43.5001 56.001L43.5 58.001ZM61.0236 63.6373L62.6056 64.861C63.2585 64.0168 64.0171 63.2583 64.8614 62.6055L63.6381 61.0233L62.4147 59.4411C61.3018 60.3015 60.3022 61.301 59.4416 62.4137L61.0236 63.6373ZM63.6381 54.9758L64.8614 53.3935C61.9001 51.104 59.999 47.524 59.999 43.499L57.999 43.499L55.999 43.499C55.999 48.8154 58.5164 53.544 62.4148 56.558L63.6381 54.9758ZM57.999 43.499L59.999 43.4991C59.9992 36.596 65.5957 31.0001 72.4991 31L72.499 29L72.499 27C63.3868 27.0001 55.9993 34.3865 55.999 43.499L57.999 43.499ZM65.249 57.9995H67.249C67.249 56.0417 66.1826 54.415 64.8614 53.3935L63.6381 54.9758L62.4148 56.558C62.9951 57.0067 63.249 57.5536 63.249 57.9995H65.249ZM63.6381 61.0233L64.8614 62.6055C66.1826 61.584 67.249 59.9573 67.249 57.9995H65.249H63.249C63.249 58.4453 62.9951 58.9923 62.4147 59.4411L63.6381 61.0233ZM29 65.248V67.248C30.9574 67.248 32.5838 66.182 33.6053 64.8613L32.0233 63.6377L30.4413 62.4141C29.9926 62.9942 29.4457 63.248 29 63.248V65.248ZM29 79.748V77.748C27.0442 77.748 25.4192 78.8136 24.3993 80.1341L25.9822 81.3566L27.565 82.5792C28.0118 82.0008 28.5565 81.748 29 81.748V79.748ZM32.0178 81.3566L33.6007 80.134C32.5808 78.8136 30.9558 77.748 29 77.748V79.748V81.748C29.4435 81.748 29.9883 82.0008 30.435 82.5791L32.0178 81.3566ZM54.9754 63.6373L53.3934 64.8609C54.4151 66.1818 56.0418 67.248 57.9995 67.248V65.248V63.248C57.5535 63.248 57.0063 62.994 56.5574 62.4136L54.9754 63.6373ZM61.0181 81.357L62.601 80.1344C61.5809 78.8138 59.9556 77.748 57.9995 77.748V79.748V81.748C58.4433 81.748 58.9884 82.0009 59.4353 82.5796L61.0181 81.357ZM25.9767 63.6376L24.3947 64.8612C25.4162 66.1819 27.0426 67.248 29 67.248V65.248V63.248C28.5543 63.248 28.0074 62.9942 27.5587 62.414L25.9767 63.6376ZM79.749 57.9995H77.749C77.749 59.9567 78.8153 61.583 80.1362 62.604L81.3594 61.0217L82.5825 59.4393C82.0026 58.991 81.749 58.4446 81.749 57.9995H79.749ZM57.9995 65.248V67.248C59.9572 67.248 61.5838 66.1819 62.6056 64.861L61.0236 63.6373L59.4416 62.4137C58.9927 62.9941 58.4456 63.248 57.9995 63.248V65.248ZM57.9995 79.748V77.748C56.0434 77.748 54.4182 78.8138 53.3981 80.1344L54.9809 81.357L56.5637 82.5796C57.0107 82.0009 57.5557 81.748 57.9995 81.748V79.748ZM81.3592 54.9774L80.1361 53.395C78.8152 54.4161 77.749 56.0423 77.749 57.9995H79.749H81.749C81.749 57.5543 82.0026 57.0079 82.5824 56.5598L81.3592 54.9774Z" fill="#222222" mask="url(#path-5-inside-2_88_582)"/>
</svg>
